<mxfile host="app.diagrams.net" agent="Mozilla/5.0 (Windows NT 10.0; Win64; x64) AppleWebKit/537.36 (KHTML, like Gecko) Chrome/130.0.0.0 Safari/537.36 Edg/130.0.0.0" version="24.7.17">
  <diagram name="Page-1" id="5QkMP6r-bM4e1ISY7eKX">
    <mxGraphModel dx="798" dy="499" grid="1" gridSize="10" guides="1" tooltips="1" connect="1" arrows="1" fold="1" page="1" pageScale="1" pageWidth="850" pageHeight="1100" math="0" shadow="0">
      <root>
        <mxCell id="0" />
        <mxCell id="1" parent="0" />
        <mxCell id="cuHPma2E2T4We7AzRuLH-7" style="edgeStyle=orthogonalEdgeStyle;rounded=0;orthogonalLoop=1;jettySize=auto;html=1;entryX=0;entryY=0.5;entryDx=0;entryDy=0;curved=0;dashed=1;dashPattern=8 8;" edge="1" parent="1" source="cuHPma2E2T4We7AzRuLH-2" target="cuHPma2E2T4We7AzRuLH-6">
          <mxGeometry relative="1" as="geometry" />
        </mxCell>
        <mxCell id="cuHPma2E2T4We7AzRuLH-2" value="&lt;font face=&quot;Comic Sans MS&quot; style=&quot;&quot;&gt;&lt;font style=&quot;font-size: 21px;&quot;&gt;x&lt;/font&gt;&lt;sub style=&quot;&quot;&gt;&lt;font style=&quot;font-size: 11px;&quot;&gt;0&lt;/font&gt;&lt;/sub&gt;&lt;/font&gt;" style="ellipse;whiteSpace=wrap;html=1;aspect=fixed;" vertex="1" parent="1">
          <mxGeometry x="250" y="340" width="40" height="40" as="geometry" />
        </mxCell>
        <mxCell id="cuHPma2E2T4We7AzRuLH-8" style="edgeStyle=orthogonalEdgeStyle;rounded=0;orthogonalLoop=1;jettySize=auto;html=1;exitX=1;exitY=0.5;exitDx=0;exitDy=0;dashed=1;dashPattern=8 8;" edge="1" parent="1" source="cuHPma2E2T4We7AzRuLH-4" target="cuHPma2E2T4We7AzRuLH-5">
          <mxGeometry relative="1" as="geometry" />
        </mxCell>
        <mxCell id="cuHPma2E2T4We7AzRuLH-11" style="edgeStyle=orthogonalEdgeStyle;rounded=0;orthogonalLoop=1;jettySize=auto;html=1;entryX=0.5;entryY=1;entryDx=0;entryDy=0;curved=1;dashed=1;dashPattern=1 4;" edge="1" parent="1" source="cuHPma2E2T4We7AzRuLH-4" target="cuHPma2E2T4We7AzRuLH-6">
          <mxGeometry relative="1" as="geometry">
            <Array as="points">
              <mxPoint x="520" y="420" />
              <mxPoint x="390" y="420" />
            </Array>
          </mxGeometry>
        </mxCell>
        <mxCell id="cuHPma2E2T4We7AzRuLH-15" style="edgeStyle=orthogonalEdgeStyle;rounded=0;orthogonalLoop=1;jettySize=auto;html=1;entryX=0.5;entryY=0;entryDx=0;entryDy=0;curved=1;" edge="1" parent="1" source="cuHPma2E2T4We7AzRuLH-4" target="cuHPma2E2T4We7AzRuLH-6">
          <mxGeometry relative="1" as="geometry">
            <Array as="points">
              <mxPoint x="520" y="290" />
              <mxPoint x="390" y="290" />
            </Array>
          </mxGeometry>
        </mxCell>
        <mxCell id="cuHPma2E2T4We7AzRuLH-4" value="&lt;font face=&quot;Comic Sans MS&quot; style=&quot;&quot;&gt;&lt;font style=&quot;font-size: 21px;&quot;&gt;x&lt;/font&gt;&lt;font style=&quot;font-size: 11px;&quot;&gt;t&lt;/font&gt;&lt;/font&gt;" style="ellipse;whiteSpace=wrap;html=1;aspect=fixed;" vertex="1" parent="1">
          <mxGeometry x="500" y="340" width="40" height="40" as="geometry" />
        </mxCell>
        <mxCell id="cuHPma2E2T4We7AzRuLH-5" value="&lt;font face=&quot;Comic Sans MS&quot; style=&quot;&quot;&gt;&lt;font style=&quot;font-size: 21px;&quot;&gt;x&lt;/font&gt;&lt;font style=&quot;font-size: 11px;&quot;&gt;T&lt;/font&gt;&lt;/font&gt;" style="ellipse;whiteSpace=wrap;html=1;aspect=fixed;" vertex="1" parent="1">
          <mxGeometry x="610" y="340" width="40" height="40" as="geometry" />
        </mxCell>
        <mxCell id="cuHPma2E2T4We7AzRuLH-10" style="edgeStyle=orthogonalEdgeStyle;rounded=0;orthogonalLoop=1;jettySize=auto;html=1;entryX=0;entryY=0.5;entryDx=0;entryDy=0;" edge="1" parent="1" source="cuHPma2E2T4We7AzRuLH-6" target="cuHPma2E2T4We7AzRuLH-4">
          <mxGeometry relative="1" as="geometry" />
        </mxCell>
        <mxCell id="cuHPma2E2T4We7AzRuLH-6" value="&lt;font face=&quot;Comic Sans MS&quot; style=&quot;&quot;&gt;&lt;font style=&quot;font-size: 21px;&quot;&gt;x&lt;/font&gt;&lt;font style=&quot;font-size: 11px;&quot;&gt;t-1&lt;/font&gt;&lt;/font&gt;" style="ellipse;whiteSpace=wrap;html=1;aspect=fixed;" vertex="1" parent="1">
          <mxGeometry x="370" y="340" width="40" height="40" as="geometry" />
        </mxCell>
        <mxCell id="cuHPma2E2T4We7AzRuLH-12" value="&lt;font face=&quot;Courier New&quot; style=&quot;font-size: 16px;&quot;&gt;q(x&lt;sub&gt;t&lt;/sub&gt;|x&lt;sub&gt;t-1&lt;/sub&gt;)&lt;/font&gt;" style="text;html=1;align=center;verticalAlign=middle;resizable=0;points=[];autosize=1;strokeColor=none;fillColor=none;" vertex="1" parent="1">
          <mxGeometry x="400" y="360" width="110" height="40" as="geometry" />
        </mxCell>
        <mxCell id="cuHPma2E2T4We7AzRuLH-13" value="&lt;font face=&quot;Courier New&quot; style=&quot;font-size: 16px;&quot;&gt;q(x&lt;sub&gt;t-1&lt;/sub&gt;|x&lt;sub&gt;t&lt;/sub&gt;)&lt;/font&gt;" style="text;html=1;align=center;verticalAlign=middle;resizable=0;points=[];autosize=1;strokeColor=none;fillColor=none;" vertex="1" parent="1">
          <mxGeometry x="400" y="410" width="110" height="40" as="geometry" />
        </mxCell>
        <mxCell id="cuHPma2E2T4We7AzRuLH-14" value="&lt;font face=&quot;Courier New&quot; style=&quot;font-size: 16px;&quot;&gt;p(x&lt;sub&gt;t-1&lt;/sub&gt;|x&lt;sub&gt;t&lt;/sub&gt;)&lt;/font&gt;" style="text;html=1;align=center;verticalAlign=middle;resizable=0;points=[];autosize=1;strokeColor=none;fillColor=none;" vertex="1" parent="1">
          <mxGeometry x="400" y="260" width="110" height="40" as="geometry" />
        </mxCell>
      </root>
    </mxGraphModel>
  </diagram>
</mxfile>
